<svg width="40" height="41" viewBox="0 0 40 41" fill="none" xmlns="http://www.w3.org/2000/svg">
<path fill-rule="evenodd" clip-rule="evenodd" d="M29.3008 28.5934L37.4721 38.182L36.0548 39.4L27.8613 29.8114C25.0416 31.952 21.8675 33.0223 18.3391 33.0223C16.1984 33.0223 14.1501 32.6053 12.194 31.7712C10.238 30.9371 8.55498 29.8151 7.14505 28.4052C5.73512 26.9953 4.61314 25.3124 3.7791 23.3562C2.94506 21.4001 2.52801 19.3518 2.52795 17.2112C2.5279 15.0706 2.94494 13.0222 3.7791 11.0661C4.61326 9.10998 5.73524 7.42699 7.14505 6.01712C8.55486 4.60725 10.2378 3.48527 12.194 2.65117C14.1502 1.81707 16.1985 1.40002 18.3391 1.40002C20.4797 1.40002 22.528 1.81707 24.4842 2.65117C26.4403 3.48527 28.1233 4.60725 29.5331 6.01712C30.943 7.42699 32.0649 9.10998 32.8991 11.0661C33.7333 13.0222 34.1503 15.0706 34.1502 17.2112C34.1502 19.4108 33.7221 21.4924 32.8659 23.4559C32.0096 25.4194 30.8212 27.1319 29.3006 28.5935L29.3008 28.5934ZM18.3393 31.1621C20.8637 31.1621 23.1963 30.5384 25.3369 29.2908C27.4776 28.0433 29.1717 26.3493 30.4191 24.2087C31.6666 22.068 32.2903 19.7355 32.2904 17.211C32.2905 14.6865 31.6667 12.3539 30.4191 10.2133C29.1716 8.07272 27.4775 6.37868 25.3369 5.13123C23.1964 3.88377 20.8638 3.26005 18.3393 3.26005C15.8147 3.26005 13.4822 3.88377 11.3416 5.13123C9.20105 6.37868 7.50702 8.07272 6.25951 10.2133C5.01199 12.3539 4.38827 14.6865 4.38832 17.211C4.38838 19.7355 5.01211 22.068 6.25951 24.2087C7.5069 26.3493 9.20094 28.0433 11.3416 29.2908C13.4823 30.5384 15.8148 31.1621 18.3393 31.1621Z" fill="white"/>
</svg>
